LG_walk_Faster02																		
version=1																		
nRows=62																		
nColumns=19																		
inDegrees=yes																		
endheader																		
time	ground_force2_vx	ground_force2_vy	ground_force2_vz	ground_force2_px	ground_force2_py	ground_force2_pz	ground_torque2_x	ground_torque2_y	ground_torque2_z	ground_force1_vx	ground_force1_vy	ground_force1_vz	ground_force1_px	ground_force1_py	ground_force1_pz	ground_torque1_x	ground_torque1_y	ground_torque1_z
4.865	-38.294144	850.314697	78.98703	0.164373	0	-0.372718	2.40E-05	1.573483	7.00E-06	0	0	0	-0.13	0	0.305	0	0	0
4.866	-38.367664	849.117432	78.986908	0.164373	0	-0.37284	2.40E-05	1.685969	4.00E-06	0	0	0	-0.13	0	0.305	0	0	0
4.867	-38.294144	848.240356	77.968536	0.164175	0	-0.372855	1.10E-05	1.685969	4.00E-06	0	0	0	-0.13	0	0.305	0	0	0
4.868	-38.608433	844.28894	76.87178	0.164175	0	-0.373396	1.10E-05	1.733056	4.00E-06	0	0	0	-0.13	0	0.305	0	0	0
4.869	-38.764133	843.420776	75.775032	0.164334	0	-0.373836	1.10E-05	1.710248	1.30E-05	0	0	0	-0.13	0	0.305	0	0	0
4.87	-39.001297	841.014893	75.617973	0.16456	0	-0.373925	4.20E-05	1.710248	1.40E-05	0	0	0	-0.13	0	0.305	0	0	0
4.871	-39.235569	839.991577	74.678246	0.164661	0	-0.374032	4.20E-05	1.699767	1.30E-05	0	0	0	-0.13	0	0.305	0	0	0
4.872	-39.237736	838.612183	74.442932	0.164661	0	-0.374253	2.50E-05	1.699767	1.00E-05	0	0	0	-0.13	0	0.305	0	0	0
4.873	-39.395603	836.369263	73.816208	0.164839	0	-0.374542	1.00E-05	1.821304	2.00E-06	0	0	0	-0.13	0	0.305	0	0	0
4.874	-40.022018	833.792236	72.87616	0.164615	0	-0.374597	7.00E-06	1.821304	2.00E-06	0	0	0	-0.13	0	0.305	0	0	0
4.875	-40.024902	832.75354	71.544342	0.164795	0	-0.375073	7.00E-06	1.821304	-1.00E-06	0	0	0	-0.13	0	0.305	0	0	0
4.876	-40.024902	830.343018	71.309265	0.164795	0	-0.375083	1.90E-05	1.836944	8.00E-06	0	0	0	-0.13	0	0.305	0	0	0
4.877	-40.649155	830.010254	70.917496	0.1648	0	-0.375659	1.90E-05	1.836944	6.00E-06	0	0	0	-0.13	0	0.305	0	0	0
4.878	-40.806297	826.927856	70.212326	0.164915	0	-0.375659	1.40E-05	1.877171	6.00E-06	0	0	0	-0.13	0	0.305	0	0	0
4.879	-41.04274	825.703979	69.663849	0.165067	0	-0.375671	1.00E-05	1.899827	6.00E-06	0	0	0	-0.13	0	0.305	0	0	0
4.88	-41.277016	824.486938	67.940292	0.165303	0	-0.376183	1.40E-05	1.899827	1.50E-05	0	0	0	-0.13	0	0.305	0	0	0
4.881	-41.669155	822.094421	67.94017	0.165337	0	-0.376542	1.10E-05	1.888561	1.50E-05	0	0	0	-0.13	0	0.305	0	0	0
4.882	-41.825577	819.865234	67.313492	0.165435	0	-0.376719	1.90E-05	1.888561	1.30E-05	0	0	0	-0.13	0	0.305	0	0	0
4.883	-41.825577	819.168579	67.078461	0.165561	0	-0.376831	1.30E-05	1.888561	1.10E-05	0	0	0	-0.13	0	0.305	0	0	0
4.884	-42.218441	815.901917	65.433189	0.165435	0	-0.376831	1.30E-05	1.86867	9.00E-06	0	0	0	-0.13	0	0.305	0	0	0
4.885	-42.45055	813.14325	65.119713	0.165561	0	-0.377707	1.30E-05	1.86867	4.00E-06	0	0	0	-0.13	0	0.305	0	0	0
4.886	-42.454159	809.53363	64.493103	0.165568	0	-0.378138	1.50E-05	1.890281	1.00E-06	0	0	0	-0.13	0	0.305	0	0	0
4.887	-43.080574	809.012512	63.161243	0.16563	0	-0.378138	1.50E-05	1.890281	1.00E-06	0	0	0	-0.13	0	0.305	0	0	0
4.888	-43.080574	803.676025	63.004543	0.165638	0	-0.378768	2.70E-05	1.890281	1.00E-06	0	0	0	-0.13	0	0.305	0	0	0
4.889	-43.234112	802.484497	61.985886	0.16563	0	-0.378886	2.00E-05	2.018803	9.00E-06	0	0	0	-0.13	0	0.305	0	0	0
4.89	-43.162033	799.711182	61.907597	0.165564	0	-0.379421	2.00E-05	2.018803	1.30E-05	0	0	0	-0.13	0	0.305	0	0	0
4.891	-43.549122	796.279785	60.967506	0.165564	0	-0.379476	2.00E-05	1.984402	9.00E-06	0	0	0	-0.13	0	0.305	0	0	0
4.892	-43.549122	796.107788	59.948727	0.165688	0	-0.380029	2.00E-05	1.925256	1.00E-05	0	0	0	-0.13	0	0.305	0	0	0
4.893	-43.786285	790.25824	59.792389	0.165782	0	-0.380029	2.00E-05	1.90668	7.00E-06	0	0	0	-0.13	0	0.305	0	0	0
4.894	-44.176262	788.720398	58.538857	0.166095	0	-0.380524	2.20E-05	1.90668	8.00E-06	0	0	0	-0.13	0	0.305	0	0	0
4.895	-44.646252	786.99884	58.068512	0.166095	0	-0.380234	2.30E-05	1.954376	7.00E-06	0	0	0	-0.13	0	0.305	0	0	0
4.896	-44.646252	782.364075	57.833439	0.166076	0	-0.380749	2.30E-05	2.016069	8.00E-06	0	0	0	-0.13	0	0.305	0	0	0
4.897	-44.648415	780.977356	56.42329	0.166033	0	-0.380904	2.30E-05	2.016069	6.00E-06	0	0	0	-0.13	0	0.305	0	0	0
4.898	-44.648415	778.38916	55.326382	0.166076	0	-0.381464	2.70E-05	1.956391	8.00E-06	0	0	0	-0.13	0	0.305	0	0	0
4.899	-44.72699	774.962402	55.09127	0.166217	0	-0.381757	2.70E-05	1.952276	8.00E-06	0	0	0	-0.13	0	0.305	0	0	0
4.9	-45.194096	773.572205	54.229713	0.166311	0	-0.381929	1.00E-06	1.924916	8.00E-06	0	0	0	-0.13	0	0.305	0	0	0
4.901	-45.196983	770.315186	53.837898	0.166315	0	-0.381941	1.00E-06	1.8693	4.00E-06	0	0	0	-0.13	0	0.305	0	0	0
4.902	-45.51416	769.295654	52.584248	0.166539	0	-0.381941	1.00E-05	1.8693	4.00E-06	0	0	0	-0.13	0	0.305	0	0	0
4.903	-45.587681	766.705994	51.879192	0.16658	0	-0.382398	1.00E-05	1.900872	4.00E-06	0	0	0	-0.13	0	0.305	0	0	0
4.904	-45.746269	764.302185	51.409134	0.16658	0	-0.382419	2.90E-05	1.900872	1.00E-06	0	0	0	-0.13	0	0.305	0	0	0
4.905	-46.130474	762.072998	50.782364	0.16658	0	-0.38284	1.70E-05	1.900872	1.00E-06	0	0	0	-0.13	0	0.305	0	0	0
4.906	-46.449093	756.727661	50.625828	0.166918	0	-0.383523	1.70E-05	1.932716	7.00E-06	0	0	0	-0.13	0	0.305	0	0	0
4.907	-46.764107	756.388245	50.390633	0.167148	0	-0.383956	1.70E-05	1.93533	7.00E-06	0	0	0	-0.13	0	0.305	0	0	0
4.908	-47.230488	753.280762	48.9804	0.167148	0	-0.384077	1.60E-05	1.93533	7.00E-06	0	0	0	-0.13	0	0.305	0	0	0
4.909	-47.231209	751.751465	48.353474	0.16716	0	-0.384113	2.20E-05	1.916704	7.00E-06	0	0	0	-0.13	0	0.305	0	0	0
4.91	-47.231209	750.710327	47.413506	0.167001	0	-0.384113	2.70E-05	1.826051	7.00E-06	0	0	0	-0.13	0	0.305	0	0	0
4.911	-47.386913	744.336975	47.021736	0.16716	0	-0.385351	2.70E-05	1.780408	5.00E-06	0	0	0	-0.13	0	0.305	0	0	0
4.912	-47.621185	743.66272	46.238312	0.167079	0	-0.385399	1.40E-05	1.826051	5.00E-06	0	0	0	-0.13	0	0.305	0	0	0
4.913	-47.781219	740.73053	46.159859	0.167159	0	-0.385638	1.40E-05	1.923061	5.00E-06	0	0	0	-0.13	0	0.305	0	0	0
4.914	-47.85907	737.634644	45.454762	0.167159	0	-0.385678	1.30E-05	1.923061	6.00E-06	0	0	0	-0.13	0	0.305	0	0	0
4.915	-48.091896	734.708923	44.592926	0.167159	0	-0.386784	7.00E-06	1.875838	6.00E-06	0	0	0	-0.13	0	0.305	0	0	0
4.916	-48.091896	729.536377	43.966324	0.167265	0	-0.386985	7.00E-06	1.874209	8.00E-06	0	0	0	-0.13	0	0.305	0	0	0
4.917	-48.327614	728.852051	43.574707	0.167301	0	-0.387444	1.20E-05	1.811858	8.00E-06	0	0	0	-0.13	0	0.305	0	0	0
4.918	-48.014046	726.106934	43.026196	0.167525	0	-0.38734	1.20E-05	1.770375	5.00E-06	0	0	0	-0.13	0	0.305	0	0	0
4.919	-48.014046	722.162964	42.6343	0.167525	0	-0.38734	8.00E-06	1.776908	5.00E-06	0	0	0	-0.13	0	0.305	0	0	0
4.92	-47.781937	722.158264	42.321056	0.167453	0	-0.38734	8.00E-06	1.776908	5.00E-06	0	0	0	-0.13	0	0.305	0	0	0
4.921	-47.391964	717.49292	41.145779	0.167453	0	-0.388441	2.20E-05	1.776908	7.00E-06	0	0	0	-0.13	0	0.305	0	0	0
4.922	-47.467648	713.891785	41.067448	0.167728	0	-0.388755	2.20E-05	1.712147	2.00E-06	0	0	0	-0.13	0	0.305	0	0	0
4.923	-47.467648	713.540405	40.205612	0.167923	0	-0.389627	1.20E-05	1.617824	2.00E-06	0	0	0	-0.13	0	0.305	0	0	0
4.924	-47.467648	711.477173	39.814159	0.168232	0	-0.389877	8.00E-06	1.679816	-2.00E-06	0	0	0	-0.13	0	0.305	0	0	0
4.925	-47.23698	708.388306	39.10894	0.168252	0	-0.389757	8.00E-06	1.679816	-2.00E-06	0	0	0	-0.13	0	0.305	0	0	0
4.926	-47.080559	706.326233	39.030453	0.168252	0	-0.389877	2.10E-05	1.758022	-2.00E-06	0	0	0	-0.13	0	0.305	0	0	0
